<?xml version="1.0" encoding="UTF-8" standalone="no"?><!DOCTYPE svg PUBLIC "-//W3C//DTD SVG 1.1//EN" "http://www.w3.org/Graphics/SVG/1.1/DTD/svg11.dtd"><svg width="100%" height="100%" viewBox="0 0 500 500" version="1.1" xmlns="http://www.w3.org/2000/svg" xmlns:xlink="http://www.w3.org/1999/xlink" xml:space="preserve" xmlns:serif="http://www.serif.com/" style="fill-rule:evenodd;clip-rule:evenodd;stroke-linejoin:round;stroke-miterlimit:2;"><g><path d="M62.429,16.23c10.589,-11.413 23.603,-16.253 38.774,-16.23c49.189,0.075 98.377,0.03 147.566,0.03c26.748,0.001 53.496,-0.061 80.243,0.02c23.31,0.07 42.039,13.529 48.386,34.945c1.302,4.395 2.015,9.127 2.041,13.71c0.175,30.94 0.072,61.881 0.118,92.823c0.006,3.804 -1.074,6.965 -4.421,8.966c-6.035,3.609 -13.454,-0.595 -13.578,-7.797c-0.153,-8.838 -0.039,-17.68 -0.041,-26.52c-0,-1.237 0,-2.473 0,-4.005l-293.511,0l0,303.417l293.51,-0c-0,-7.392 -0.061,-14.722 0.019,-22.05c0.062,-5.692 4.499,-9.735 9.884,-9.185c4.745,0.484 8.006,4.101 8.078,9.296c0.104,7.479 0.036,14.96 0.037,22.44c0.002,11.448 0.018,22.895 -0.003,34.342c-0.053,28.188 -21.654,49.58 -49.882,49.568c-76.389,-0.034 -152.779,-0.011 -229.169,-0.013c-29.373,-0 -50.584,-20.751 -50.61,-50.131c-0.108,-120.251 -0.051,-240.503 -0.055,-360.754c-0.001,-12.921 0.071,-25.842 -0.02,-38.761c-0.092,-12.902 3.921,-24.237 12.634,-34.111m138.96,77.483l160.121,0c-0,-14.976 0.061,-29.461 -0.015,-43.945c-0.097,-18.345 -13.52,-31.586 -31.938,-31.588c-76.699,-0.006 -153.398,-0.006 -230.097,0.008c-18.109,0.003 -31.574,13.434 -31.629,31.545c-0.042,13.595 -0.014,27.19 -0.003,40.785c0,0.982 0.108,1.965 0.181,3.195l133.38,0m-132.294,340.208c-0.426,0.746 -1.21,1.485 -1.222,2.237c-0.093,5.437 -0.25,10.887 0.025,16.313c0.835,16.458 14.034,29.422 30.264,29.438c77.62,0.078 155.24,0.073 232.86,-0.004c9.87,-0.01 17.873,-4.301 24.063,-12.019c8.684,-10.826 6.053,-23.492 6.397,-35.969c-97.57,-0 -194.663,-0 -292.387,0.004Z" style="fill:#030303;fill-rule:nonzero;"/><path d="M450.193,319.426c0.001,13.033 0.025,25.726 -0.004,38.419c-0.016,7.283 -3.311,10.555 -10.629,10.556c-90.776,0.01 -181.553,0.011 -272.329,0.005c-7.403,-0 -10.789,-3.388 -10.798,-10.81c-0.019,-16.886 -0.016,-33.772 0.005,-50.658c0.01,-7.572 2.931,-10.612 10.569,-11.116c15.053,-0.995 26.558,-12.993 26.675,-27.817c0.117,-14.943 -11.041,-27.105 -26.053,-28.398c-8.833,-0.76 -11.189,-3.319 -11.195,-12.237c-0.013,-16.433 -0.018,-32.866 -0.003,-49.298c0.008,-7.893 3.253,-11.053 11.198,-11.052c90.436,0.007 180.873,0.009 271.309,0.011c8.212,-0 11.259,3.041 11.259,11.245c-0.002,17.113 0.027,34.226 -0.006,51.338c-0.012,6.67 -3.823,10.208 -10.513,9.925c-15.555,-0.656 -28.903,11.825 -29.226,27.327c-0.335,16.072 12.302,29.049 28.241,29c8.533,-0.026 11.518,2.914 11.504,11.321c-0.007,3.967 -0.003,7.933 -0.004,12.239m-218.707,-8.805c7.359,-3.793 13.884,0.147 13.945,8.428c0.02,2.606 0,5.213 -0,7.819c-0.001,7.681 -0,15.362 -0,23.225l186.587,0l0,-36.315c-27.137,-5.253 -39.205,-26.675 -39.642,-44.653c-0.241,-9.907 2.298,-19.07 7.898,-27.28c7.672,-11.249 18.437,-17.766 31.703,-20.078l-0,-36.483l-186.546,0c0,1.617 0,2.964 0,4.312c0.002,9.066 0.028,18.133 -0.004,27.199c-0.019,5.546 -3.739,9.451 -8.914,9.472c-5.198,0.021 -8.942,-3.814 -9.027,-9.399c-0.074,-4.872 -0.008,-9.746 -0.007,-14.619c0.002,-5.629 0.001,-11.259 0.001,-16.962l-52.754,-0l-0,36.883c0.71,0.226 1.24,0.417 1.781,0.565c21.171,5.776 35.233,23.654 35.283,44.859c0.049,21.09 -13.865,39.115 -34.773,44.879c-1.849,0.51 -2.548,1.141 -2.528,3.146c0.105,10.878 0.044,21.758 0.063,32.638c0.001,0.629 0.205,1.257 0.299,1.792l52.617,-0c-0,-10.407 0.045,-20.587 -0.026,-30.765c-0.024,-3.385 0.865,-6.245 4.044,-8.663Z" style="fill:#040404;fill-rule:nonzero;"/><path d="M216.01,44.041c11.901,-0.002 23.461,-0.042 35.022,0.015c4.752,0.023 8.334,2.841 9.234,7c0.913,4.221 -1.019,8.445 -4.947,10.146c-1.498,0.648 -3.283,0.874 -4.939,0.879c-23.8,0.062 -47.601,0.059 -71.402,0.06c-6.048,0.001 -10.181,-3.693 -10.155,-9.027c0.026,-5.355 4.141,-9.063 10.125,-9.07c12.241,-0.013 24.481,-0.004 37.062,-0.003Z" style="fill:#060606;fill-rule:nonzero;"/><path d="M227.48,278.611c0.007,-9.502 -0.05,-18.666 0.049,-27.829c0.045,-4.119 2.464,-7.155 6.235,-8.353c3.595,-1.141 7.645,-0.124 9.695,2.942c1.068,1.599 1.856,3.723 1.886,5.623c0.174,11.085 0.136,22.174 0.065,33.26c-0.033,5.308 -3.833,9.122 -8.873,9.181c-4.928,0.058 -8.865,-3.867 -9.038,-9.056c-0.06,-1.809 -0.016,-3.62 -0.019,-5.768Z" style="fill:#040404;fill-rule:nonzero;"/></g></svg>