<?xml version="1.0" encoding="UTF-8" standalone="no"?><!DOCTYPE svg PUBLIC "-//W3C//DTD SVG 1.1//EN" "http://www.w3.org/Graphics/SVG/1.1/DTD/svg11.dtd"><svg width="100%" height="100%" viewBox="0 0 500 500" version="1.1" xmlns="http://www.w3.org/2000/svg" xmlns:xlink="http://www.w3.org/1999/xlink" xml:space="preserve" xmlns:serif="http://www.serif.com/" style="fill-rule:evenodd;clip-rule:evenodd;stroke-linecap:round;stroke-linejoin:round;stroke-miterlimit:1.5;"><g><path d="M248.499,492.014c-127.403,-41.52 -201.829,-137.372 -201.829,-225.589c-0,-88.562 -0.147,-189.241 -0.147,-189.241c129.961,-0 203.477,-69.684 203.477,-69.684l0.215,0.2c4.427,4.08 77.356,69.484 203.262,69.484c0,-0 -0.147,100.679 -0.147,189.241c0,88.562 -75.01,184.819 -203.33,226.075l-1.501,-0.486Z" style="fill:none;stroke:#000;stroke-width:14.58px;"/><path d="M248.796,444.11c-102.185,-33.302 -161.88,-110.181 -161.88,-180.936c0,-71.032 -0.117,-151.783 -0.117,-151.783c104.237,-0 163.201,-55.891 163.201,-55.891l0.172,0.16c3.551,3.273 62.044,55.731 163.029,55.731c0,-0 -0.117,80.751 -0.117,151.783c-0,71.032 -60.163,148.236 -163.084,181.326l-1.204,-0.39Z" style="fill:none;stroke:#000;stroke-width:14.58px;"/><path d="M249.121,391.754c-74.623,-24.32 -118.217,-80.463 -118.217,-132.133c0,-51.873 -0.086,-110.844 -0.086,-110.844c76.122,0 119.182,-40.816 119.182,-40.816l0.126,0.118c2.593,2.39 45.309,40.698 119.056,40.698c-0,0 -0.086,58.971 -0.086,110.844c-0,51.873 -43.936,108.253 -119.096,132.418l-0.879,-0.285Z" style="fill:none;stroke:#000;stroke-width:14.58px;"/><path d="M194.696,252.406l35.265,35.265l75.343,-75.342" style="fill:none;stroke:#000;stroke-width:14.58px;"/></g></svg>