<?xml version="1.0" encoding="UTF-8" standalone="no"?><!DOCTYPE svg PUBLIC "-//W3C//DTD SVG 1.1//EN" "http://www.w3.org/Graphics/SVG/1.1/DTD/svg11.dtd"><svg width="100%" height="100%" viewBox="0 0 500 500" version="1.1" xmlns="http://www.w3.org/2000/svg" xmlns:xlink="http://www.w3.org/1999/xlink" xml:space="preserve" xmlns:serif="http://www.serif.com/" style="fill-rule:evenodd;clip-rule:evenodd;stroke-linecap:round;stroke-linejoin:round;stroke-miterlimit:1.5;"><path d="M305.357,442.857l26.786,-23.214l23.214,16.071l25,-21.428" style="fill:none;stroke:#000;stroke-width:14.58px;"/><path d="M219.643,201.786l126.786,-0" style="fill:none;stroke:#000;stroke-width:14.58px;"/><path d="M185.714,241.071l185.715,0" style="fill:none;stroke:#000;stroke-width:14.58px;"/><path d="M185.714,280.357l185.715,0" style="fill:none;stroke:#000;stroke-width:14.58px;"/><path d="M366.071,12.5l-292.857,-0l0,416.071" style="fill:none;stroke:#000;stroke-width:14.58px;"/><path d="M396.429,41.071l-292.858,0l0,416.072" style="fill:none;stroke:#000;stroke-width:14.58px;"/><rect x="133.929" y="71.429" width="292.857" height="416.071" style="fill:none;stroke:#000;stroke-width:14.58px;"/><circle cx="233.929" cy="392.857" r="53.571" style="fill:none;stroke:#000;stroke-width:14.58px;"/><path d="M248.2,392.176l13.68,-5.262c0.406,1.918 0.62,3.906 0.62,5.943c0,15.769 -12.802,28.572 -28.571,28.572c-15.769,-0 -28.572,-12.803 -28.572,-28.572c0,-15.769 12.803,-28.571 28.572,-28.571c1.641,-0 3.251,0.138 4.818,0.405l-0.938,13.124c-1.762,-0.665 -3.672,-1.029 -5.666,-1.029c-8.87,-0 -16.072,7.201 -16.072,16.071c0,8.87 7.202,16.072 16.072,16.072c8.87,-0 16.071,-7.202 16.071,-16.072c0,-0.228 -0.004,-0.455 -0.014,-0.681Z" style="fill:none;stroke:#000;stroke-width:14.58px;"/></svg>