<?xml version="1.0" encoding="UTF-8" standalone="no"?><!DOCTYPE svg PUBLIC "-//W3C//DTD SVG 1.1//EN" "http://www.w3.org/Graphics/SVG/1.1/DTD/svg11.dtd"><svg width="100%" height="100%" viewBox="0 0 500 500" version="1.1" xmlns="http://www.w3.org/2000/svg" xmlns:xlink="http://www.w3.org/1999/xlink" xml:space="preserve" xmlns:serif="http://www.serif.com/" style="fill-rule:evenodd;clip-rule:evenodd;stroke-linecap:round;stroke-linejoin:round;stroke-miterlimit:1.5;"><g><g><path d="M134.819,201.042l-11.311,28.016" style="fill:none;stroke:#000;stroke-width:14.58px;"/><path d="M369.405,201.508c69.4,7.382 115.988,21.094 115.988,36.764c-0,23.579 -105.476,42.723 -235.393,42.723c-129.917,-0 -235.393,-19.144 -235.393,-42.723c0,-15.986 48.486,-29.934 120.212,-37.23l42.301,-111.042l73.718,26.806l78.743,-26.806l50.262,140.733l-10.438,-29.225Z" style="fill:none;stroke:#000;stroke-width:14.58px;"/><path d="M162.042,349.686l41.885,12.565" style="fill:none;stroke:#000;stroke-width:14.58px;"/><path d="M342.984,349.686l-41.885,12.565" style="fill:none;stroke:#000;stroke-width:14.58px;"/><path d="M202.251,410l-83.769,-31.832l-13.403,-63.665c48.116,9.549 96.861,11.558 145.759,11.727l2.292,-0.009c48.126,-0.225 96.101,-2.318 143.467,-11.718l-13.403,63.665l-83.77,31.832l-48.586,-40.209l-48.587,40.209Z" style="fill:none;stroke:#000;stroke-width:14.58px;"/></g></g></svg>