<?xml version="1.0" encoding="UTF-8" standalone="no"?><!DOCTYPE svg PUBLIC "-//W3C//DTD SVG 1.1//EN" "http://www.w3.org/Graphics/SVG/1.1/DTD/svg11.dtd"><svg width="100%" height="100%" viewBox="0 0 500 500" version="1.1" xmlns="http://www.w3.org/2000/svg" xmlns:xlink="http://www.w3.org/1999/xlink" xml:space="preserve" xmlns:serif="http://www.serif.com/" style="fill-rule:evenodd;clip-rule:evenodd;stroke-linecap:round;stroke-linejoin:round;stroke-miterlimit:1.5;"><g><ellipse cx="98.091" cy="339.732" rx="39.011" ry="46.104" style="fill:none;stroke:#000;stroke-width:14.58px;"/><ellipse cx="247.042" cy="373.055" rx="39.011" ry="46.104" style="fill:none;stroke:#000;stroke-width:14.58px;"/><ellipse cx="151.108" cy="120.075" rx="39.011" ry="46.104" style="fill:none;stroke:#000;stroke-width:14.58px;"/><ellipse cx="349.709" cy="58.604" rx="39.011" ry="46.104" style="fill:none;stroke:#000;stroke-width:14.58px;"/><path d="M203.302,452.035c0,0 108.758,-14.35 108.758,35.465" style="fill:none;stroke:#000;stroke-width:14.58px;"/><path d="M28.344,487.5l0,-35.464c4.761,-11.298 12.317,-18.557 22.457,-24.051c31.05,-16.824 71.249,-14.731 100.307,4.175c7.95,5.172 13.508,9.415 16.73,19.876l-0,33.1" style="fill:none;stroke:#000;stroke-width:14.58px;"/><path d="M316.788,137.584l61.472,0l40.193,-26.007l49.65,-80.386c0,0 33.759,26.401 18.915,54.379l-26.008,47.286l-54.379,56.743l0,44.921" style="fill:none;stroke:#000;stroke-width:14.58px;"/><ellipse cx="337.685" cy="266.662" rx="39.011" ry="46.104" style="fill:none;stroke:#000;stroke-width:14.58px;"/><path d="M304.764,345.642l61.472,0l40.193,-26.007l49.65,-80.386c0,0 33.759,26.401 18.915,54.379l-26.008,47.286l-54.378,56.743l-0,44.921" style="fill:none;stroke:#000;stroke-width:14.58px;"/><path d="M92.18,265.256l0,-14.185l-49.919,-49.92l-32.831,-56.474c-0,0 -4.152,-29.891 23.643,-49.65c-0,0 42.544,88.317 92.207,106.393l56.743,0l37.829,-26.007c0,0 49.434,-70.678 52.015,-80.386c-0,0 35.842,20.174 14.185,56.743l-23.642,47.286l-52.015,52.015l0,44.921" style="fill:none;stroke:#000;stroke-width:14.58px;"/></g></svg>