<?xml version="1.0" encoding="UTF-8" standalone="no"?><!DOCTYPE svg PUBLIC "-//W3C//DTD SVG 1.1//EN" "http://www.w3.org/Graphics/SVG/1.1/DTD/svg11.dtd"><svg width="100%" height="100%" viewBox="0 0 500 500" version="1.1" xmlns="http://www.w3.org/2000/svg" xmlns:xlink="http://www.w3.org/1999/xlink" xml:space="preserve" xmlns:serif="http://www.serif.com/" style="fill-rule:evenodd;clip-rule:evenodd;stroke-linecap:round;stroke-linejoin:round;stroke-miterlimit:1.5;"><g><g><path d="M248.499,492.014c-127.403,-41.52 -201.829,-137.372 -201.829,-225.589c-0,-88.562 -0.147,-189.241 -0.147,-189.241c129.961,-0 203.477,-69.684 203.477,-69.684l0.215,0.2c4.427,4.08 77.356,69.484 203.262,69.484c0,-0 -0.147,100.679 -0.147,189.241c0,88.562 -75.01,184.819 -203.33,226.075l-1.501,-0.486Z" style="fill:none;stroke:#000;stroke-width:14.58px;"/><g><path d="M250,300.172l0,-41.81" style="fill:none;stroke:#000;stroke-width:14.58px;"/><path d="M199.774,210.977c-0.877,-4.48 -1.34,-9.144 -1.34,-13.937c-0,-33.844 23.106,-61.322 51.566,-61.322c28.46,0 51.566,27.478 51.566,61.322c0,4.793 -0.463,9.457 -1.34,13.937l37.576,0l-0,136.58l-175.604,0l0,-136.58l37.576,0Z" style="fill:none;stroke:#000;stroke-width:14.58px;"/><path d="M300.226,210.977l-100.452,0" style="fill:none;stroke:#000;stroke-width:14.58px;"/></g></g></g></svg>