<?xml version="1.0" encoding="UTF-8" standalone="no"?><!DOCTYPE svg PUBLIC "-//W3C//DTD SVG 1.1//EN" "http://www.w3.org/Graphics/SVG/1.1/DTD/svg11.dtd"><svg width="100%" height="100%" viewBox="0 0 500 500" version="1.1" xmlns="http://www.w3.org/2000/svg" xmlns:xlink="http://www.w3.org/1999/xlink" xml:space="preserve" xmlns:serif="http://www.serif.com/" style="fill-rule:evenodd;clip-rule:evenodd;stroke-linecap:round;stroke-linejoin:round;stroke-miterlimit:1.5;"><g><g><g><path d="M87.404,278.726c1.004,-22.813 16.594,-43.347 39.809,-49.568c28.672,-7.683 58.187,9.358 65.87,38.03c4.448,16.598 0.61,33.479 -9.011,46.213c-2.453,0.03 -4.936,0.381 -7.408,1.044l-57.957,15.529l-4.46,-2.298c-1.447,-0.931 -2.895,-1.861 -4.342,-2.792l-3.499,-2.753l-0.63,-0.507l-3.493,-3.339l-0.952,-1.066l-2.249,-2.612l-1.092,-1.449l-1.798,-2.556l-1.022,-1.624l-1.539,-2.728l-0.868,-1.681l-1.374,-3.132l-0.627,-1.519l-1.579,-4.89l-1.047,-4.886l-0.217,-1.492l-0.385,-3.483l-0.105,-1.59l-0.037,-3.765l0.012,-1.086Z" style="fill:none;stroke:#000;stroke-width:12.5px;"/><path d="M106.406,322.131l2.725,2.192c-0.578,3.107 -1.491,6.128 -2.805,8.969l-52.478,14.061c-4.139,1.109 -7.869,2.989 -11.068,5.453c-8.716,-5.601 -15.429,-14.347 -18.318,-25.13c-6.204,-23.155 7.557,-46.99 30.712,-53.195c11.29,-3.025 22.742,-1.303 32.234,3.94l-0.004,0.305l-0.021,0.234l0.009,0.852l-0.032,2.724l0.069,1.041l0.007,0.704l0.098,0.886l0.1,1.519l0.285,1.964l0.11,0.997l0.107,0.495c0.256,1.632 0.612,3.26 1.047,4.886c0.449,1.673 0.971,3.306 1.579,4.89l0.112,0.346l0.515,1.173l0.964,2.338l0.41,0.794l0.281,0.64l0.587,1.041l0.812,1.572l0.727,1.156l0.488,0.865l0.534,0.759l0.651,1.034l1.147,1.522l0.695,0.988l0.397,0.461l0.45,0.598l1.799,2.014l0.759,0.881l0.193,0.185c1.113,1.17 2.279,2.284 3.493,3.339l0.065,0.062l0.565,0.445Z" style="fill:none;stroke:#000;stroke-width:12.5px;"/><path d="M175.216,377.588l-57.363,54.401l-19.515,-72.832l76.878,18.431Z" style="fill:none;stroke:#000;stroke-width:12.5px;"/><path d="M215.595,336.921c-4.541,-16.945 -21.985,-27.017 -38.931,-22.476l-122.816,32.908c-16.945,4.541 -27.017,21.985 -22.476,38.931l16.454,61.408c4.54,16.945 21.985,27.017 38.931,22.476l122.815,-32.908c16.946,-4.541 27.017,-21.985 22.477,-38.931l-16.454,-61.408Z" style="fill:none;stroke:#000;stroke-width:12.5px;"/><path d="M212.994,330.283l0.305,-1.93c-0,-0 37.307,-46.729 50.546,-20.377l24.225,90.407c1.71,29.44 -53.963,7.626 -53.963,7.626l-1.022,-1.262c-0.122,-2.129 -0.463,-4.278 -1.036,-6.418l-16.454,-61.408c-0.631,-2.352 -1.509,-4.571 -2.601,-6.638Z" style="fill:none;stroke:#000;stroke-width:12.5px;"/></g></g><g><path d="M471.588,182.074c9.886,10.602 4.407,36.311 -1.59,41.347l-90.645,90.644c-13.252,11.932 -32.865,12.878 -42.141,3.976l-23.854,-23.854c-10.53,-10.123 -28.559,3.686 -36.576,-4.771l-60.43,-60.429c-8.456,-8.017 5.353,-26.046 -4.77,-36.576l-23.854,-23.854c-8.902,-9.276 -7.957,-28.889 3.976,-42.142l90.644,-90.644c5.036,-5.997 30.745,-11.477 41.347,-1.59l147.893,147.893Z" style="fill:none;stroke:#000;stroke-width:12.5px;"/><path d="M285.529,220.24c-22.381,-22.381 -22.381,-58.722 -0,-81.103c22.38,-22.381 58.721,-22.381 81.102,0c22.381,22.381 22.381,58.722 0,81.103c-22.381,22.381 -58.722,22.381 -81.102,0Z" style="fill:none;stroke:#000;stroke-width:12.5px;"/><path d="M220.328,172.533c-4.827,-4.828 -4.827,-12.666 0,-17.493c4.827,-4.827 12.666,-4.827 17.493,-0c4.827,4.827 4.827,12.665 -0,17.493c-4.827,4.827 -12.666,4.827 -17.493,-0Z" style="fill:none;stroke:#000;stroke-width:12.5px;"/></g></g></svg>