<?xml version="1.0" encoding="UTF-8" standalone="no"?><!DOCTYPE svg PUBLIC "-//W3C//DTD SVG 1.1//EN" "http://www.w3.org/Graphics/SVG/1.1/DTD/svg11.dtd"><svg width="100%" height="100%" viewBox="0 0 2000 800" version="1.1" xmlns="http://www.w3.org/2000/svg" xmlns:xlink="http://www.w3.org/1999/xlink" xml:space="preserve" xmlns:serif="http://www.serif.com/" style="fill-rule:evenodd;clip-rule:evenodd;stroke-linejoin:round;stroke-miterlimit:2;"><g><path id="_719543696" d="M1204.69,109.57l123.046,0l300,404.297l0,-342.969c0,-34.765 -47.265,-60.156 -47.265,-60.156l153.906,0c0,0 -40.234,23.047 -40.234,59.766l-0,519.922c-0,-0 -71.094,-28.907 -125,-101.953c-53.907,-73.047 -255.86,-337.11 -255.86,-337.11l0,349.219c0,25 42.188,55.859 42.188,55.859l-152.344,0c0,0 42.188,-23.047 42.188,-53.906l-0,-426.172c0.39,-46.094 -40.626,-66.797 -40.626,-66.797Zm661.719,404.297l0,-343.359c0,-34.766 -47.656,-60.547 -47.656,-60.547l181.25,-0c0,-0 -40.625,23.047 -40.625,59.766l0,426.953c0,32.812 38.672,59.765 38.672,59.765l-173.828,0c-0,0 42.578,-26.172 42.578,-53.125l-0,-89.453l-0.391,0Zm-1032.42,-348.828l0,165.625l78.516,0c36.328,0 88.281,-19.141 88.281,-86.719c0,-67.578 -76.953,-78.906 -103.515,-78.906l-63.282,0Zm0,219.531l0,215.625l103.516,0c40.234,0 115.234,-34.765 115.234,-101.953c0,-67.187 -61.328,-113.672 -119.14,-113.672l-99.61,0Zm-134.375,-274.609l266.016,-0c59.375,-0 127.344,50.781 127.344,120.312c-0,94.532 -72.266,107.032 -72.266,107.032c0,-0 126.563,30.859 126.563,151.953c-0,121.094 -138.282,167.187 -184.375,167.187l-266.797,-0.781c-0,0 46.093,-23.828 46.093,-64.453l0,-415.625c0,-42.188 -42.578,-65.625 -42.578,-65.625Z" style="fill:#067;"/><g id="_719544824"><rect x="-0" y="109.961" width="546.875" height="546.875" style="fill:#fff;"/><path d="M-0,109.961l170.703,-0c-0.391,1.172 -1.562,4.297 -3.125,10.547c-7.422,28.906 -18.359,112.5 56.641,234.765c18.359,30.079 36.328,54.297 54.687,77.735l-59.375,47.656c-98.437,-121.094 -219.531,-275 -219.531,-275l-0,-95.703Zm-0,208.594l-0,338.281l165.625,-133.594l-114.063,-142.187l-51.562,-62.5Zm546.875,-34.375c-1.172,-1.563 -6.25,-9.375 -13.672,-16.797c-22.656,-23.438 -71.875,-60.938 -130.859,-28.906c-54.688,29.687 -82.813,97.656 -14.453,187.5c55.859,73.828 106.64,81.25 135.156,76.953c5.078,-0.782 19.922,-4.297 23.828,-6.641l0,-212.109Zm0,-98.828l0,-75l-304.297,-0c-0.391,1.171 -2.734,5.859 -3.516,13.671c-1.953,17.188 -2.734,50.391 9.766,96.875c16.797,64.063 63.672,121.485 63.672,121.485c-0,-0 -4.688,-63.672 53.906,-122.656c37.11,-37.11 79.297,-48.829 113.672,-48.438c12.109,0 23.047,1.953 32.813,3.906c3.906,0.782 30.859,8.594 33.984,10.157Zm0,338.281c-1.563,1.172 -4.688,3.125 -10.156,7.031c-14.844,10.156 -46.875,25 -100,17.188c-48.047,-7.422 -93.75,-39.063 -135.938,-88.672l-60.156,48.437c42.578,51.172 75.391,92.188 86.328,100c41.406,29.688 69.922,18.36 69.922,18.36l-38.281,31.25l188.281,-0l-0,-133.594Zm-283.594,133.203l-208.594,-0l17.188,-13.672l115.625,-92.578c-0,-0 45.703,59.375 64.062,81.25c3.516,4.297 5.86,8.203 7.813,11.719c3.516,5.859 3.125,10.156 3.906,13.281Z" style="fill:#e45300;"/></g></g></svg>