<?xml version="1.0" encoding="UTF-8" standalone="no"?><!DOCTYPE svg PUBLIC "-//W3C//DTD SVG 1.1//EN" "http://www.w3.org/Graphics/SVG/1.1/DTD/svg11.dtd"><svg width="100%" height="100%" viewBox="0 0 448 196" version="1.1" xmlns="http://www.w3.org/2000/svg" xmlns:xlink="http://www.w3.org/1999/xlink" xml:space="preserve" xmlns:serif="http://www.serif.com/" style="fill-rule:evenodd;clip-rule:evenodd;stroke-linejoin:round;stroke-miterlimit:2;"><g><text x="59.357px" y="194.915px" style="font-family:'Arial-BoldMT', 'Arial', sans-serif;font-weight:700;font-size:87.231px;fill:#fff;">ESTIVITY</text><path d="M447.213,9.768c-5.264,-0 -9.538,4.273 -9.538,9.537c-0,5.264 4.274,9.538 9.538,9.538l-0,9.79l-381.51,0l0,-9.79c5.264,0 9.538,-4.274 9.538,-9.538c-0,-5.264 -4.274,-9.537 -9.538,-9.537l0,-9.791l381.51,0l-0,9.791Z" style="fill:#fff;"/><path d="M447.213,75.483c-5.264,0 -9.538,4.274 -9.538,9.538c-0,5.264 4.274,9.538 9.538,9.538l-0,9.79l-381.51,0l0,-9.79c5.264,-0 9.538,-4.274 9.538,-9.538c-0,-5.264 -4.274,-9.538 -9.538,-9.538l0,-9.79l381.51,-0l-0,9.79Z" style="fill:#fff;"/><path d="M29.106,-0.023c-0,5.264 4.274,9.538 9.538,9.538l-0,176.97c-1.059,0.003 -2.112,0.174 -3.113,0.52c-1.327,0.459 -2.545,1.214 -3.549,2.194c-1.044,1.02 -1.851,2.278 -2.336,3.656c-0.352,0.998 -0.53,2.049 -0.54,3.106l-0,0.062l-19.581,-0c0,-5.264 -4.274,-9.538 -9.538,-9.538l0,-176.97c5.264,-0 9.538,-4.274 9.538,-9.538l19.581,0Z" style="fill:#fff;"/></g></svg>