<?xml version="1.0" encoding="UTF-8" standalone="no"?><!DOCTYPE svg PUBLIC "-//W3C//DTD SVG 1.1//EN" "http://www.w3.org/Graphics/SVG/1.1/DTD/svg11.dtd"><svg width="100%" height="100%" viewBox="0 0 500 500" version="1.1" xmlns="http://www.w3.org/2000/svg" xmlns:xlink="http://www.w3.org/1999/xlink" xml:space="preserve" xmlns:serif="http://www.serif.com/" style="fill-rule:evenodd;clip-rule:evenodd;stroke-linejoin:round;stroke-miterlimit:2;"><path d="M250,0c137.979,0 250,112.021 250,250c0,137.979 -112.021,250 -250,250c-137.979,0 -250,-112.021 -250,-250c0,-137.979 112.021,-250 250,-250Zm123.408,125.86c-32.739,-32.781 -76.282,-50.844 -122.677,-50.86c-95.599,0 -173.403,77.795 -173.436,173.42c-0.016,30.569 7.975,60.406 23.152,86.702l-24.607,89.878l91.941,-24.116c25.33,13.821 53.853,21.097 82.876,21.106l0.074,-0c95.583,-0 173.396,-77.804 173.429,-173.429c0.017,-46.344 -18.004,-89.911 -50.752,-122.693l-0,-0.008Zm-122.677,266.841l-0.058,0c-25.862,-0.008 -51.234,-6.961 -73.37,-20.091l-5.265,-3.126l-54.56,14.311l14.56,-53.198l-3.426,-5.455c-14.428,-22.951 -22.053,-49.48 -22.037,-76.713c0.034,-79.475 64.698,-144.14 144.215,-144.14c38.502,0.016 74.694,15.027 101.911,42.277c27.219,27.244 42.195,63.468 42.179,101.979c-0.034,79.484 -64.698,144.148 -144.149,144.148l0,0.008Zm79.068,-107.957c-4.333,-2.17 -25.637,-12.649 -29.613,-14.095c-3.975,-1.448 -6.86,-2.171 -9.746,2.17c-2.885,4.341 -11.193,14.104 -13.721,16.989c-2.528,2.894 -5.056,3.252 -9.389,1.081c-4.332,-2.17 -18.295,-6.744 -34.851,-21.505c-12.882,-11.493 -21.581,-25.679 -24.108,-30.02c-2.528,-4.341 -0.266,-6.686 1.895,-8.84c1.946,-1.946 4.333,-5.064 6.503,-7.592c2.171,-2.529 2.886,-4.341 4.333,-7.227c1.447,-2.894 0.724,-5.421 -0.357,-7.592c-1.082,-2.171 -9.746,-23.501 -13.364,-32.175c-3.518,-8.448 -7.093,-7.301 -9.746,-7.442c-2.528,-0.125 -5.414,-0.15 -8.308,-0.15c-2.894,-0 -7.584,1.082 -11.559,5.422c-3.975,4.341 -15.168,14.827 -15.168,36.149c-0,21.322 15.526,41.938 17.696,44.832c2.17,2.894 30.561,46.66 74.028,65.438c10.337,4.465 18.412,7.134 24.707,9.13c10.379,3.302 19.825,2.836 27.292,1.722c8.325,-1.248 25.639,-10.487 29.248,-20.607c3.609,-10.121 3.609,-18.803 2.528,-20.607c-1.081,-1.805 -3.975,-2.894 -8.308,-5.065l0.008,-0.016Z" style="fill:#fff;"/></svg>