<?xml version="1.0" encoding="UTF-8" standalone="no"?><!DOCTYPE svg PUBLIC "-//W3C//DTD SVG 1.1//EN" "http://www.w3.org/Graphics/SVG/1.1/DTD/svg11.dtd"><svg width="100%" height="100%" viewBox="0 0 500 500" version="1.1" xmlns="http://www.w3.org/2000/svg" xmlns:xlink="http://www.w3.org/1999/xlink" xml:space="preserve" xmlns:serif="http://www.serif.com/" style="fill-rule:evenodd;clip-rule:evenodd;stroke-linejoin:round;stroke-miterlimit:2;"><path d="M250,-0c137.979,-0 250,112.021 250,250c0,137.979 -112.021,250 -250,250c-137.979,0 -250,-112.021 -250,-250c0,-137.979 112.021,-250 250,-250Zm-72.477,76.212c-18.62,0.879 -31.338,3.861 -42.451,8.216c-11.505,4.485 -21.257,10.495 -30.958,20.236c-9.713,9.747 -15.678,19.516 -20.129,31.032c-4.309,11.142 -7.229,23.866 -8.052,42.498c-0.816,18.666 -1.003,24.62 -0.912,72.14c0.091,47.516 0.3,53.48 1.19,72.152c0.89,18.615 3.862,31.328 8.216,42.446c4.491,11.505 10.495,21.252 20.242,30.959c9.741,9.708 19.517,15.667 31.038,20.124c11.13,4.303 23.859,7.234 42.485,8.051c18.666,0.822 24.625,1.003 72.134,0.913c47.532,-0.091 53.491,-0.301 72.157,-1.185c18.62,-0.891 31.326,-3.873 42.451,-8.216c11.505,-4.502 21.257,-10.496 30.958,-20.242c9.702,-9.742 15.667,-19.517 20.118,-31.038c4.309,-11.131 7.24,-23.86 8.051,-42.475c0.816,-18.677 1.009,-24.642 0.918,-72.158c-0.091,-47.521 -0.306,-53.474 -1.19,-72.134c-0.884,-18.632 -3.867,-31.339 -8.216,-42.464c-4.496,-11.504 -10.495,-21.246 -20.236,-30.958c-9.741,-9.702 -19.517,-15.678 -31.038,-20.118c-11.136,-4.309 -23.859,-7.246 -42.486,-8.051c-18.665,-0.828 -24.624,-1.009 -72.15,-0.919c-47.515,0.091 -53.474,0.295 -72.14,1.191Zm2.042,316.356c-17.062,-0.742 -26.326,-3.577 -32.501,-5.953c-8.176,-3.164 -14.011,-6.957 -20.151,-13.052c-6.129,-6.119 -9.934,-11.936 -13.126,-20.095c-2.399,-6.175 -5.285,-15.429 -6.084,-32.49c-0.868,-18.445 -1.066,-23.979 -1.151,-70.706c-0.091,-46.716 0.079,-52.25 0.884,-70.711c0.731,-17.05 3.584,-26.327 5.954,-32.496c3.163,-8.187 6.946,-14.011 13.052,-20.151c6.118,-6.141 11.935,-9.934 20.1,-13.126c6.169,-2.411 15.423,-5.274 32.478,-6.085c18.456,-0.873 23.984,-1.06 70.7,-1.151c46.726,-0.09 52.26,0.074 70.722,0.885c17.049,0.743 26.325,3.567 32.489,5.954c8.181,3.163 14.016,6.934 20.151,13.052c6.134,6.118 9.939,11.924 13.131,20.106c2.41,6.152 5.274,15.417 6.079,32.467c0.879,18.456 1.077,23.99 1.162,70.706c0.091,46.727 -0.079,52.261 -0.89,70.712c-0.743,17.061 -3.572,26.332 -5.953,32.512c-3.164,8.171 -6.946,14.005 -13.059,20.146c-6.112,6.118 -11.929,9.934 -20.1,13.126c-6.158,2.404 -15.422,5.273 -32.466,6.084c-18.456,0.867 -23.984,1.066 -70.717,1.151c-46.715,0.091 -52.243,-0.085 -70.704,-0.885Zm-19.42,-142.398c0.096,49.63 40.404,89.775 90.022,89.678c49.624,-0.096 89.79,-40.394 89.694,-90.024c-0.096,-49.613 -40.41,-89.78 -90.039,-89.684c-49.619,0.097 -89.774,40.411 -89.677,90.03Zm31.519,-0.062c-0.057,-32.212 26.014,-58.379 58.22,-58.436c32.211,-0.063 58.384,25.997 58.446,58.214c0.063,32.218 -26.008,58.38 -58.225,58.442c-32.206,0.062 -58.379,-26.003 -58.441,-58.22Zm130.564,-93.653c0.022,11.59 9.446,20.974 21.035,20.951c11.595,-0.023 20.979,-9.441 20.962,-21.03c-0.022,-11.59 -9.446,-20.98 -21.041,-20.957c-11.595,0.023 -20.979,9.446 -20.956,21.036Z" style="fill:#fff;"/></svg>