<?xml version="1.0" encoding="UTF-8" standalone="no"?><!DOCTYPE svg PUBLIC "-//W3C//DTD SVG 1.1//EN" "http://www.w3.org/Graphics/SVG/1.1/DTD/svg11.dtd"><svg width="100%" height="100%" viewBox="0 0 2000 800" version="1.1" xmlns="http://www.w3.org/2000/svg" xmlns:xlink="http://www.w3.org/1999/xlink" xml:space="preserve" xmlns:serif="http://www.serif.com/" style="fill-rule:evenodd;clip-rule:evenodd;stroke-linejoin:round;stroke-miterlimit:2;"><g><path d="M2.081,509.054c-0,-28.906 -0.506,-53.184 -2.081,-74.84l54.733,-0l2.597,37.208l1.529,-0c12.377,-19.642 35.091,-42.903 77.431,-42.903c33.057,-0 58.849,18.624 69.677,46.461l1.058,-0c8.773,-13.926 19.074,-24.253 30.94,-31.457c13.941,-9.805 29.984,-15.004 50.602,-15.004c41.824,-0 84.129,28.384 84.129,108.98l-0,148.11l-61.936,-0l-0,-138.867c-0,-41.778 -14.448,-66.594 -44.912,-66.594c-21.672,0 -37.694,15.501 -44.386,33.578c-1.549,6.14 -3.103,13.932 -3.103,21.12l0,150.763l-61.946,-0l-0,-145.615c-0,-35.03 -13.921,-59.846 -43.374,-59.846c-23.701,0 -39.702,18.594 -45.433,36.129c-2.561,6.186 -3.604,13.436 -3.604,20.634l-0,148.698l-61.921,-0l-0,-176.555Z" style="fill:#003e79;fill-rule:nonzero;"/><path d="M552.058,562.79c-44.928,-1.048 -87.749,8.747 -87.749,46.941c0,24.775 16.033,36.155 36.14,36.155c25.255,-0 43.869,-16.569 49.543,-34.626c1.529,-4.663 2.066,-9.785 2.066,-13.916l-0,-34.554Zm61.967,62.437c-0,22.689 1.022,44.866 3.583,60.382l-57.304,-0l-4.11,-27.857l-1.565,-0c-15.5,19.636 -41.824,33.521 -74.287,33.521c-50.618,0 -79.002,-36.609 -79.002,-74.834c0,-63.532 56.216,-95.489 149.189,-94.983l0,-4.125c0,-16.524 -6.738,-43.89 -51.139,-43.89c-24.789,0 -50.586,7.761 -67.616,18.578l-12.382,-41.292c18.584,-11.37 51.098,-22.208 90.831,-22.208c80.556,-0 103.802,51.144 103.802,105.82l-0,90.888Z" style="fill:#003e79;fill-rule:nonzero;"/><path d="M657.884,509.054c-0,-28.906 -0.537,-53.184 -2.02,-74.84l55.694,-0l3.093,37.729l1.57,0c10.833,-19.642 38.199,-43.424 80.003,-43.424c43.895,-0 89.292,28.384 89.292,107.927l0,149.163l-63.475,-0l0,-141.919c0,-36.165 -13.45,-63.542 -48.015,-63.542c-25.265,0 -42.862,18.073 -49.544,37.183c-2.06,5.674 -2.581,13.414 -2.581,20.613l-0,147.665l-64.017,-0l-0,-176.555Z" style="fill:#003e79;fill-rule:nonzero;"/><path d="M1097.31,538.992c0,-5.133 -0.511,-11.334 -1.569,-16.529c-5.675,-24.723 -25.772,-44.876 -54.697,-44.876c-40.782,0 -63.521,36.139 -63.521,83.112c-0,45.898 22.739,79.482 63.025,79.482c25.756,-0 48.496,-17.556 54.676,-44.933c1.575,-5.659 2.086,-11.881 2.086,-18.573l0,-37.683Zm63.465,-205.763l0,281.65c0,25.803 1.068,53.711 2.071,70.73l-56.748,-0l-2.587,-39.723l-1.053,-0c-14.964,27.862 -45.428,45.387 -82.058,45.387c-59.896,0 -107.349,-51.092 -107.349,-128.483c-0.553,-84.17 52.089,-134.271 112.497,-134.271c34.57,-0 59.365,14.457 70.709,33.107l1.053,0l0,-128.397l63.465,0Z" style="fill:#003e79;fill-rule:nonzero;"/><rect x="1205.68" y="434.214" width="64.042" height="251.395" style="fill:#003e79;fill-rule:nonzero;"/><path d="M1314.59,515.275c0,-34.073 -0.511,-58.372 -2.029,-81.061l55.239,-0l2.019,47.954l2.101,-0c12.393,-35.562 41.784,-47.954 68.69,-47.954c6.155,-0 9.775,-1.033 14.908,-0l-0,55.776c-5.133,-1.043 -10.792,-2.071 -18.548,-2.071c-30.49,0 -51.139,19.606 -56.798,47.959c-1.002,5.695 -2.06,12.439 -2.06,19.673l-0,130.058l-63.522,-0l0,-170.334Z" style="fill:#003e79;fill-rule:nonzero;"/><rect x="1484.99" y="434.214" width="63.961" height="251.395" style="fill:#003e79;fill-rule:nonzero;"/><path d="M1947.36,168.351c-31.676,-36.139 -65.372,-19.79 -92.13,-6.488c-11.252,5.557 -92.538,51.645 -92.538,51.645c-44.534,18.364 -79.216,-1.677 -92.836,-18.547c-1.406,-1.779 -2.622,-3.446 -3.543,-5.077l-3.144,-5.491c-4.867,-8.22 -10.705,-17.525 -17.867,-26.686c-3.835,-4.974 -8.109,-9.949 -12.817,-14.642c-30.454,-30.781 -79.17,-52.315 -160.579,-13.185c-38.527,22.336 -164.097,94.078 -164.097,94.078c-47.151,19.432 -83.27,-4.238 -94.972,-21.59c-0.516,-0.654 -1.033,-1.436 -1.365,-2.09l-1.539,-2.633l-7.965,-12.996c-3.41,-5.378 -7.183,-10.9 -11.528,-16.574c-3.87,-4.949 -8.175,-9.877 -12.847,-14.622c-30.271,-30.577 -78.705,-52.069 -159.388,-13.685c-48.798,27.847 -162.272,92.743 -162.272,92.743c-0.025,0.036 -0.025,0.036 -0.036,0.036c-46.696,26.691 -83.065,47.453 -83.065,47.453l42.974,52.775c18.078,17.233 52.08,45.494 104.671,21.666c-0,-0 145.14,-84.053 145.707,-84.293c124.087,-68.102 185.343,-3.031 212.388,40.332c0.94,1.354 1.718,2.827 2.551,4.146l0.066,0.061c0.322,0.521 0.552,1.017 0.823,1.508l3.083,5.02c13.159,19.995 33.992,32.904 58.777,32.316c13.675,-0.276 22.954,-4.745 36.472,-12.239l140.431,-81.456c0.087,-0.045 0.158,-0.097 0.296,-0.127c125.631,-68.93 187.9,0.398 214.494,43.767c2.066,3.757 4.433,7.326 6.82,10.664c13.165,17.857 31.334,29.549 54.396,28.987c15.224,-0.312 32.31,-9.453 34.835,-11.13l168.386,-97.165c-0,-0 -17.223,-25.976 -52.642,-66.481Z" style="fill:url(#_Linear1);"/></g><defs><linearGradient id="_Linear1" x1="0" y1="0" x2="1" y2="0" gradientUnits="userSpaceOnUse" gradientTransform="matrix(1311,-605.451,605.451,1311,875.675,489.734)"><stop offset="0" style="stop-color:#fdb812;stop-opacity:1"/><stop offset="0.2" style="stop-color:#ffca05;stop-opacity:1"/><stop offset="0.4" style="stop-color:#faa819;stop-opacity:1"/><stop offset="0.5" style="stop-color:#ffc30b;stop-opacity:1"/><stop offset="0.6" style="stop-color:#fcb414;stop-opacity:1"/><stop offset="0.8" style="stop-color:#ffcb03;stop-opacity:1"/><stop offset="1" style="stop-color:#ffcb03;stop-opacity:1"/></linearGradient></defs></svg>