<?xml version="1.0" encoding="UTF-8" standalone="no"?><!DOCTYPE svg PUBLIC "-//W3C//DTD SVG 1.1//EN" "http://www.w3.org/Graphics/SVG/1.1/DTD/svg11.dtd"><svg width="100%" height="100%" viewBox="0 0 2000 800" version="1.1" xmlns="http://www.w3.org/2000/svg" xmlns:xlink="http://www.w3.org/1999/xlink" xml:space="preserve" xmlns:serif="http://www.serif.com/" style="fill-rule:evenodd;clip-rule:evenodd;stroke-linejoin:round;stroke-miterlimit:2;"><g><path d="M1291.06,559.72c-22.369,47.687 -44.362,94.723 -66.391,141.741c-10.733,22.908 -21.698,45.709 -32.186,68.727c-2.612,5.733 -6.109,8.541 -12.357,9.792c-29.656,5.94 -58.97,14.065 -89.24,16.14c-20.569,1.41 -41.306,1.642 -61.917,0.931c-42.083,-1.453 -83.359,-8.138 -123.255,-22.154c-66.906,-23.504 -119.797,-64.356 -155.454,-126.226c-18.299,-31.751 -30.016,-65.958 -35.848,-102.142c-12.026,-74.61 -1.325,-146.508 26.382,-216.235c22.489,-56.595 54.578,-107.21 95.661,-152.2c75.094,-82.234 167.6,-133.338 276.69,-154.376c35.304,-6.808 71.085,-10.32 107.15,-8.479c16.416,0.837 32.013,5.797 47.57,10.702c2.192,0.691 4.367,1.434 6.939,2.282c6.734,-8.439 13.334,-16.709 20.48,-25.664c53.199,28.081 106.06,55.983 160.172,84.546c-38.573,70.577 -77.006,140.012 -115.771,210.247c-2.795,-1.773 -5.049,-2.956 -7.026,-4.494c-38.382,-29.858 -81.11,-50.252 -129.782,-54.914c-68.838,-6.593 -132.936,6.331 -186.304,53.607c-34.481,30.544 -55.477,69.342 -64.603,114.534c-6.578,32.573 -3.742,64.199 9.481,94.753c15.268,35.28 41.183,60.083 75.935,75.747c21.103,9.512 43.512,14.017 66.478,16.805c40.54,4.921 78.685,-4.076 116.119,-18.141c27.176,-10.211 53.482,-22.23 77.724,-38.407c0.799,-0.533 1.767,-0.813 4.804,-2.173c-4.198,9.234 -7.644,16.813 -11.451,25.051Z" style="fill:#0060af;fill-rule:nonzero;"/><path d="M238.238,772.588l-202.11,0c46.439,-179.324 92.425,-356.9 138.51,-534.855c-18.658,-4.806 -36.77,-0.943 -55.928,-3.248c5.038,-10.075 9.622,-19.538 14.463,-28.867c11.346,-21.864 22.891,-43.624 34.218,-65.498c21.277,-41.093 42.55,-82.19 63.568,-123.416c2.807,-5.506 6.228,-7.57 12.389,-7.561c107.293,0.157 214.593,-0.514 321.878,0.437c40.337,0.358 79.38,9.125 113.793,31.965c40.43,26.835 61.575,64.973 65.623,113.165c5.013,59.672 -19.043,108.049 -57.667,150.93c-23.852,26.482 -51.887,47.629 -83.034,64.78c-1.728,0.952 -3.286,2.213 -5.626,3.811c1.556,1.241 2.556,2.456 3.841,3.004c46.764,19.954 70.666,56.902 77.64,105.798c4.629,32.464 5.231,65.026 -3.496,97.087c-9.802,36.012 -27.849,67.479 -52.855,95.09c-33.362,36.839 -74.134,62.4 -120.616,79.157c-25.144,9.065 -51.089,15.06 -77.792,16.725c-18.574,1.158 -37.227,1.351 -55.846,1.434c-43.317,0.195 -86.636,0.062 -130.953,0.062Zm99.691,-317.529c-10.625,40.915 -21.19,81.602 -32.08,123.54l27.424,-0c11.226,-0 22.452,-0.014 33.676,-0.013c5.657,0.001 11.279,0.005 16.897,0.017l3.371,0.007c0.199,0.001 0.398,0.001 0.598,0l0.598,-0.002c0.597,-0.005 1.194,-0.014 1.79,-0.027l0.595,-0.014c8.538,-0.232 16.939,-1.379 25.119,-3.555l0.571,-0.154c0.38,-0.103 0.759,-0.209 1.138,-0.317l0.569,-0.164c1.135,-0.33 2.267,-0.681 3.394,-1.053c0.939,-0.309 1.875,-0.633 2.807,-0.971c0.616,-0.224 1.23,-0.451 1.843,-0.683c0.579,-0.218 1.155,-0.44 1.73,-0.666c0.203,-0.08 0.407,-0.16 0.612,-0.242c2.121,-0.845 4.207,-1.738 6.255,-2.688c1.349,-0.625 2.681,-1.274 3.991,-1.949c0.485,-0.249 0.967,-0.503 1.446,-0.759c0.655,-0.351 1.305,-0.708 1.948,-1.072l0.161,-0.091l0.377,-0.215c0.811,-0.466 1.613,-0.944 2.405,-1.432l0.392,-0.243c0.651,-0.406 1.296,-0.821 1.935,-1.244l0.383,-0.255l0.187,-0.126c2.006,-1.353 3.947,-2.791 5.812,-4.323c0.227,-0.187 0.454,-0.375 0.678,-0.564c0.516,-0.434 1.026,-0.875 1.53,-1.325c0.157,-0.139 0.313,-0.28 0.469,-0.421l0.339,-0.309c0.226,-0.208 0.45,-0.417 0.673,-0.627c0.185,-0.175 0.37,-0.352 0.553,-0.529l0.112,-0.108l0.142,-0.139c0.722,-0.704 1.43,-1.425 2.123,-2.165l0.316,-0.34c0.734,-0.794 1.452,-1.61 2.151,-2.446l0.299,-0.36c0.139,-0.169 0.277,-0.338 0.415,-0.509c0.648,-0.803 1.281,-1.625 1.898,-2.467c0.172,-0.235 0.342,-0.471 0.511,-0.709c0.659,-0.926 1.299,-1.876 1.919,-2.851c0.865,-1.362 1.691,-2.771 2.474,-4.23l0.24,-0.449c0.238,-0.45 0.471,-0.901 0.696,-1.347c0.15,-0.298 0.298,-0.596 0.445,-0.898c0.292,-0.598 0.574,-1.196 0.847,-1.794l0.202,-0.448c0.067,-0.15 0.134,-0.3 0.199,-0.448l0.195,-0.448l0.192,-0.448c0.317,-0.747 0.618,-1.494 0.903,-2.236l0.17,-0.446c0.448,-1.19 0.859,-2.378 1.231,-3.561c0.512,-1.626 0.954,-3.245 1.327,-4.858l0.1,-0.439l0.044,-0.198c0.376,-1.701 0.674,-3.391 0.899,-5.069c0.075,-0.561 0.142,-1.119 0.2,-1.679l0.044,-0.429c0.097,-1 0.167,-1.995 0.212,-2.98c0.07,-1.552 0.075,-3.088 0.018,-4.604l-0.017,-0.413c-0.027,-0.594 -0.064,-1.186 -0.11,-1.774c-0.128,-1.634 -0.329,-3.244 -0.602,-4.827l-0.046,-0.27c-0.024,-0.131 -0.048,-0.263 -0.072,-0.394l-0.046,-0.244c-0.438,-2.301 -1.027,-4.542 -1.759,-6.711c-0.676,-2.004 -1.474,-3.948 -2.388,-5.821c-0.104,-0.214 -0.21,-0.427 -0.318,-0.642c-0.379,-0.748 -0.776,-1.485 -1.192,-2.209l-0.045,-0.08l-0.136,-0.233c-0.16,-0.275 -0.323,-0.548 -0.489,-0.82l-0.162,-0.265c-0.068,-0.108 -0.136,-0.217 -0.203,-0.325l-0.184,-0.289c-0.174,-0.273 -0.352,-0.543 -0.532,-0.812l-0.122,-0.183l-0.216,-0.316l-0.181,-0.262c-1.051,-1.506 -2.187,-2.95 -3.403,-4.325c-1.016,-1.146 -2.088,-2.246 -3.214,-3.295c-0.671,-0.625 -1.361,-1.231 -2.07,-1.819l-0.189,-0.156l-0.274,-0.224c-0.144,-0.116 -0.288,-0.231 -0.433,-0.345c-0.573,-0.452 -1.157,-0.892 -1.753,-1.321l-0.317,-0.226c-0.332,-0.234 -0.667,-0.464 -1.005,-0.691c-0.316,-0.212 -0.636,-0.42 -0.958,-0.625c-0.703,-0.447 -1.419,-0.878 -2.149,-1.291l-0.2,-0.113l-0.181,-0.101c-1.01,-0.56 -2.045,-1.089 -3.105,-1.585c-0.45,-0.21 -0.905,-0.415 -1.364,-0.614l-0.371,-0.158c-0.564,-0.239 -1.134,-0.468 -1.711,-0.688l-0.173,-0.066l-0.382,-0.142l-0.265,-0.097c-0.168,-0.061 -0.336,-0.121 -0.505,-0.18l-0.388,-0.135c-0.132,-0.045 -0.265,-0.09 -0.397,-0.134l-0.384,-0.126l-0.393,-0.126l-0.395,-0.123c-0.132,-0.04 -0.264,-0.081 -0.397,-0.121l-0.398,-0.117l-0.4,-0.115l-0.402,-0.112c-0.996,-0.273 -2.008,-0.52 -3.034,-0.739l-0.244,-0.052l-0.417,-0.086l-0.373,-0.073c-0.321,-0.063 -0.643,-0.123 -0.967,-0.179l-0.346,-0.061c-0.142,-0.023 -0.283,-0.047 -0.425,-0.07l-0.274,-0.044c-0.765,-0.12 -1.536,-0.226 -2.313,-0.316l-0.436,-0.05l-0.732,-0.078l-0.732,-0.077c-1.143,-0.117 -2.287,-0.227 -3.431,-0.328c-0.628,-0.056 -1.257,-0.11 -1.887,-0.162c-2.372,-0.194 -4.748,-0.357 -7.125,-0.492c-1.583,-0.09 -3.168,-0.168 -4.759,-0.235c-2.728,-0.115 -5.462,-0.197 -8.198,-0.252l-1.1,-0.021l-1.481,-0.023l-1.482,-0.019c-0.494,-0.004 -0.988,-0.009 -1.483,-0.013l-0.851,-0.006c-1.694,-0.01 -3.391,-0.012 -5.09,-0.007c-3.772,0.013 -7.553,0.061 -11.34,0.131c-2.949,0.053 -5.904,0.12 -8.861,0.192c-11.729,0.285 -23.535,0.66 -35.414,0.691l-1.519,0.002Zm80.732,-136.327c6.325,0.002 12.646,-0.034 18.966,-0.142c1.155,-0.019 2.31,-0.041 3.465,-0.066c1.316,-0.028 2.631,-0.059 3.947,-0.095c0.467,-0.012 0.933,-0.028 1.4,-0.046c0.388,-0.016 0.776,-0.033 1.165,-0.053c1.219,-0.062 2.436,-0.145 3.651,-0.25c0.804,-0.07 1.605,-0.149 2.405,-0.238l0.509,-0.057c1.208,-0.141 2.412,-0.304 3.613,-0.49c0.433,-0.067 0.865,-0.137 1.296,-0.21c0.408,-0.069 0.814,-0.141 1.22,-0.216l0.385,-0.072c1.321,-0.248 2.635,-0.526 3.941,-0.833c0.427,-0.101 0.854,-0.205 1.28,-0.312l0.617,-0.157c0.411,-0.107 0.822,-0.217 1.231,-0.33l0.614,-0.172c1.464,-0.415 2.917,-0.871 4.357,-1.369c0.974,-0.336 1.942,-0.691 2.905,-1.065c2.174,-0.847 4.318,-1.793 6.425,-2.845c0.499,-0.249 0.996,-0.503 1.49,-0.764c0.281,-0.147 0.561,-0.298 0.841,-0.45c0.274,-0.148 0.545,-0.298 0.816,-0.45c0.329,-0.184 0.655,-0.37 0.978,-0.556c0.352,-0.204 0.7,-0.409 1.045,-0.616l1.038,-0.636l0.225,-0.141c1.564,-0.984 3.059,-2.009 4.489,-3.074c0.627,-0.467 1.24,-0.941 1.842,-1.423c1.626,-1.303 3.16,-2.661 4.604,-4.07c0.881,-0.858 1.729,-1.736 2.544,-2.633l0.433,-0.479c0.234,-0.264 0.466,-0.529 0.695,-0.795c0.389,-0.453 0.77,-0.91 1.145,-1.372c0.712,-0.88 1.397,-1.776 2.055,-2.688c0.19,-0.265 0.378,-0.53 0.563,-0.796c0.136,-0.195 0.27,-0.39 0.403,-0.584l0.313,-0.465c0.343,-0.516 0.679,-1.036 1.005,-1.559c0.392,-0.63 0.774,-1.266 1.142,-1.907c0.253,-0.439 0.5,-0.88 0.741,-1.323c1.158,-2.129 2.196,-4.326 3.119,-6.585l0.212,-0.523c0.315,-0.789 0.616,-1.585 0.904,-2.39c0.158,-0.441 0.312,-0.883 0.463,-1.329l0.179,-0.54c1.954,-5.952 3.206,-12.285 3.865,-18.917l0.059,-0.604c0.044,-0.476 0.086,-0.954 0.124,-1.434c0.044,-0.535 0.083,-1.071 0.119,-1.609l0.039,-0.613c0.016,-0.264 0.032,-0.528 0.046,-0.792c0.019,-0.351 0.037,-0.704 0.053,-1.058c0.012,-0.273 0.022,-0.547 0.028,-0.822c0.013,-0.574 0.013,-1.147 -0.001,-1.719c-0.005,-0.208 -0.012,-0.416 -0.021,-0.623c-0.093,-2.199 -0.392,-4.377 -0.911,-6.49c-0.229,-0.932 -0.5,-1.852 -0.816,-2.755l-0.244,-0.673l-0.156,-0.404c-0.116,-0.295 -0.238,-0.588 -0.364,-0.879c-0.41,-0.945 -0.872,-1.869 -1.387,-2.765c-0.717,-1.247 -1.538,-2.443 -2.466,-3.574c-0.072,-0.087 -0.144,-0.174 -0.217,-0.261c-0.498,-0.592 -1.027,-1.165 -1.586,-1.719c-0.773,-0.765 -1.604,-1.493 -2.496,-2.177c-4.886,-3.749 -11.148,-5.704 -17.608,-8.609l-0.604,-0.056l-0.212,-0.089c-6.939,-0.562 -13.869,-1.429 -20.817,-1.624c-0.936,-0.026 -1.872,-0.051 -2.808,-0.075c-0.936,-0.024 -1.872,-0.047 -2.807,-0.069l-2.808,-0.063c-1.871,-0.039 -3.743,-0.075 -5.616,-0.108l-2.808,-0.047c-0.936,-0.015 -1.872,-0.029 -2.808,-0.044l-2.808,-0.039c-1.873,-0.025 -3.745,-0.049 -5.617,-0.07l-2.809,-0.032c-4.681,-0.052 -9.362,-0.097 -14.042,-0.146c-1.239,-0.013 -2.478,-0.022 -3.72,-0.029c-1.451,-0.008 -2.905,-0.012 -4.365,-0.014l-1.627,-0.001l-1.632,0c-2.699,0.003 -5.424,0.011 -8.19,0.018c-2.259,0.005 -4.546,0.01 -6.872,0.01c-8.179,36.047 -16.165,71.245 -24.252,106.885c1.65,0.303 2.878,0.617 3.936,0.822c0.269,0.052 0.528,0.097 0.779,0.133l0.154,0.021c0.193,0.025 0.383,0.044 0.571,0.057l0.478,0.017c10.15,0.03 20.302,0.137 30.449,0.184l2.03,0.008c2.03,0.008 4.059,0.013 6.089,0.014Z" style="fill:#0060ae;fill-rule:nonzero;"/><path d="M1505.64,760.287c-0.997,2.225 -1.983,3.671 -2.346,5.26c-1.403,6.155 -5.53,7.139 -11.175,7.13c-82.641,-0.133 -165.283,-0.089 -247.924,-0.113c-2.3,-0 -4.6,-0.292 -8.424,-0.551c7.189,-17.472 16.562,-33.041 24.429,-49.295c8.121,-16.782 16.912,-33.239 25.318,-49.885c8.258,-16.352 16.349,-32.787 24.606,-49.14c8.254,-16.346 16.619,-32.636 24.941,-48.948c8.324,-16.315 16.653,-32.626 24.98,-48.938c8.477,-16.607 17.009,-33.187 25.418,-49.829c8.262,-16.349 16.353,-32.784 24.603,-49.138c8.249,-16.352 16.59,-32.658 24.914,-48.972c8.324,-16.311 16.741,-32.576 24.999,-48.92c8.412,-16.647 16.618,-33.398 25.028,-50.045c8.198,-16.228 16.543,-32.382 25.675,-50.233l-59.769,0c1.14,-8.7 99.728,-192.623 117.004,-218.952l362.815,0c0.626,2.856 1.549,5.361 1.672,7.904c0.817,16.936 1.457,33.881 2.166,50.823c1.196,28.562 2.418,57.123 3.593,85.687c0.835,20.266 1.496,40.539 2.444,60.8c0.932,19.908 2.175,39.803 3.186,59.708c0.371,7.312 0.441,14.639 0.692,21.958c0.685,19.942 1.321,39.886 2.109,59.824c1.287,32.555 2.649,65.108 4.037,97.659c1.275,29.889 2.595,59.776 3.957,89.661c1.18,25.895 2.511,51.784 3.652,77.681c0.878,19.932 1.448,39.879 2.367,59.81c0.903,19.577 2.256,39.134 3.055,58.715c0.419,10.267 0.074,20.565 0.074,30.863c-6.85,2.18 -227.854,2.938 -243.248,0.653c-1.264,-20.941 -0.4,-42.136 -0.557,-63.298c-0.158,-21.27 -0.035,-42.543 -0.035,-63.525c-8.202,-2.528 -142.761,-3.469 -165.522,-1.295c-15.985,38.358 -32.211,77.293 -48.734,116.941Zm166.004,-295.521c1.306,-0.004 2.611,-0.01 3.917,-0.019l1.952,-0.014c7.149,-0.061 14.146,-0.191 20.345,-0.384l1.671,-0.054c0.855,-0.029 1.693,-0.059 2.513,-0.091c1.308,-0.051 2.567,-0.104 3.771,-0.16l0.669,-0.032l0.162,-0.008c3.391,-0.166 6.308,-0.358 8.574,-0.573c0.477,-0.045 0.925,-0.092 1.342,-0.139c0.252,-0.029 0.494,-0.058 0.724,-0.087c1.094,-0.14 1.926,-0.288 2.459,-0.444l0.089,-0.027c0.028,-0.009 0.056,-0.018 0.083,-0.027l0,-128.772c-0.455,-26.273 -0.904,-52.546 -1.392,-78.819c-0.001,-0.057 -0.003,-0.113 -0.006,-0.17l-0.002,-0.042c-0.003,-0.035 -0.005,-0.07 -0.008,-0.105l-0.007,-0.087c-0.028,-0.31 -0.078,-0.62 -0.141,-0.929c-0.085,-0.421 -0.192,-0.841 -0.292,-1.261c-0.062,-0.261 -0.122,-0.521 -0.172,-0.781l-1.756,-0.281l-89.637,211.752c0.106,0.019 0.212,0.037 0.319,0.056l0.32,0.052c0.541,0.085 1.159,0.166 1.847,0.243l0.187,0.021l0.422,0.044c0.641,0.066 1.335,0.129 2.081,0.189l0.555,0.043c0.752,0.057 1.551,0.112 2.391,0.163l0.638,0.038c0.432,0.025 0.873,0.05 1.324,0.074l0.684,0.035c0.461,0.023 0.932,0.045 1.411,0.066c6.397,0.289 14.423,0.456 22.93,0.512c2.656,0.018 5.359,0.025 8.076,0.022l1.957,-0.004Z" style="fill:#0060ae;fill-rule:nonzero;"/></g></svg>