<?xml version="1.0" encoding="UTF-8" standalone="no"?><!DOCTYPE svg PUBLIC "-//W3C//DTD SVG 1.1//EN" "http://www.w3.org/Graphics/SVG/1.1/DTD/svg11.dtd"><svg width="100%" height="100%" viewBox="0 0 500 500" version="1.1" xmlns="http://www.w3.org/2000/svg" xmlns:xlink="http://www.w3.org/1999/xlink" xml:space="preserve" xmlns:serif="http://www.serif.com/" style="fill-rule:evenodd;clip-rule:evenodd;stroke-linejoin:round;stroke-miterlimit:2;"><path d="M500,250.916c0,-138.071 -111.929,-250 -250,-250c-138.071,-0 -250,111.929 -250,250c0,117.245 80.715,215.622 189.606,242.637l0,-166.241l-51.552,-0l0,-76.397l51.552,0l0,-32.918c0,-85.093 38.508,-124.533 122.048,-124.533c15.838,0 43.167,3.105 54.347,6.212l0,69.254c-5.901,-0.621 -16.149,-0.933 -28.882,-0.933c-40.993,0 -56.832,15.529 -56.832,55.9l0,27.018l81.659,0l-14.028,76.397l-67.631,-0l0,171.772c123.786,-14.95 219.713,-120.351 219.713,-248.169" style="fill:#fff;fill-rule:nonzero;"/></svg>